<svg width="1693" height="644" viewBox="0 0 1693 644" fill="none" xmlns="http://www.w3.org/2000/svg">
<circle cx="261.919" cy="424.524" r="3.52358" transform="rotate(90 261.919 424.524)" fill="#70C217"/>
<circle cx="261.919" cy="476.203" r="3.52358" transform="rotate(90 261.919 476.203)" fill="#70C217"/>
<circle cx="261.919" cy="527.882" r="3.52358" transform="rotate(90 261.919 527.882)" fill="#70C217"/>
<circle cx="261.919" cy="579.561" r="3.52358" transform="rotate(90 261.919 579.561)" fill="#70C217"/>
<circle cx="210.24" cy="424.524" r="3.52358" transform="rotate(90 210.24 424.524)" fill="#70C217"/>
<circle cx="210.24" cy="476.203" r="3.52358" transform="rotate(90 210.24 476.203)" fill="#70C217"/>
<circle cx="210.24" cy="527.882" r="3.52358" transform="rotate(90 210.24 527.882)" fill="#70C217"/>
<circle cx="210.24" cy="579.561" r="3.52358" transform="rotate(90 210.24 579.561)" fill="#70C217"/>
<circle cx="158.56" cy="424.524" r="3.52358" transform="rotate(90 158.56 424.524)" fill="#70C217"/>
<circle cx="158.56" cy="476.203" r="3.52358" transform="rotate(90 158.56 476.203)" fill="#70C217"/>
<circle cx="158.56" cy="527.882" r="3.52358" transform="rotate(90 158.56 527.882)" fill="#70C217"/>
<circle cx="158.56" cy="579.561" r="3.52358" transform="rotate(90 158.56 579.561)" fill="#70C217"/>
<circle cx="106.881" cy="424.524" r="3.52358" transform="rotate(90 106.881 424.524)" fill="#70C217"/>
<circle cx="106.881" cy="476.203" r="3.52358" transform="rotate(90 106.881 476.203)" fill="#70C217"/>
<circle cx="106.881" cy="527.882" r="3.52358" transform="rotate(90 106.881 527.882)" fill="#70C217"/>
<circle cx="106.881" cy="579.561" r="3.52358" transform="rotate(90 106.881 579.561)" fill="#70C217"/>
<circle cx="55.202" cy="424.524" r="3.52358" transform="rotate(90 55.202 424.524)" fill="#70C217"/>
<circle cx="55.202" cy="476.203" r="3.52358" transform="rotate(90 55.202 476.203)" fill="#70C217"/>
<circle cx="55.202" cy="527.882" r="3.52358" transform="rotate(90 55.202 527.882)" fill="#70C217"/>
<circle cx="55.202" cy="579.561" r="3.52358" transform="rotate(90 55.202 579.561)" fill="#70C217"/>
<circle cx="3.52281" cy="424.524" r="3.52358" transform="rotate(90 3.52281 424.524)" fill="#70C217"/>
<circle cx="3.52281" cy="476.203" r="3.52358" transform="rotate(90 3.52281 476.203)" fill="#70C217"/>
<circle cx="3.52281" cy="527.882" r="3.52358" transform="rotate(90 3.52281 527.882)" fill="#70C217"/>
<circle cx="3.52281" cy="579.561" r="3.52358" transform="rotate(90 3.52281 579.561)" fill="#70C217"/>
<circle cx="54.8676" cy="273.868" r="28.0887" transform="rotate(16.0891 54.8676 273.868)" stroke="#FFBA49" stroke-width="5"/>
<circle cx="1552.5" cy="223.5" r="19" stroke="#FFBA49" stroke-width="5"/>
<circle cx="1689.44" cy="315.722" r="3.52358" transform="rotate(90 1689.44 315.722)" fill="#EF4358"/>
<circle cx="1689.44" cy="367.401" r="3.52358" transform="rotate(90 1689.44 367.401)" fill="#EF4358"/>
<circle cx="1689.44" cy="419.08" r="3.52358" transform="rotate(90 1689.44 419.08)" fill="#EF4358"/>
<circle cx="1689.44" cy="470.759" r="3.52358" transform="rotate(90 1689.44 470.759)" fill="#EF4358"/>
<circle cx="1689.44" cy="522.438" r="3.52358" transform="rotate(90 1689.44 522.438)" fill="#EF4358"/>
<circle cx="1637.76" cy="315.721" r="3.52358" transform="rotate(90 1637.76 315.721)" fill="#EF4358"/>
<circle cx="1637.76" cy="367.401" r="3.52358" transform="rotate(90 1637.76 367.401)" fill="#EF4358"/>
<circle cx="1637.76" cy="419.08" r="3.52358" transform="rotate(90 1637.76 419.08)" fill="#EF4358"/>
<circle cx="1637.76" cy="470.759" r="3.52358" transform="rotate(90 1637.76 470.759)" fill="#EF4358"/>
<circle cx="1637.76" cy="522.438" r="3.52358" transform="rotate(90 1637.76 522.438)" fill="#EF4358"/>
<circle cx="1586.08" cy="315.721" r="3.52358" transform="rotate(90 1586.08 315.721)" fill="#EF4358"/>
<circle cx="1586.08" cy="367.401" r="3.52358" transform="rotate(90 1586.08 367.401)" fill="#EF4358"/>
<circle cx="1586.08" cy="419.08" r="3.52358" transform="rotate(90 1586.08 419.08)" fill="#EF4358"/>
<circle cx="1586.08" cy="470.759" r="3.52358" transform="rotate(90 1586.08 470.759)" fill="#EF4358"/>
<circle cx="1586.08" cy="522.438" r="3.52358" transform="rotate(90 1586.08 522.438)" fill="#EF4358"/>
<circle cx="1534.4" cy="315.721" r="3.52358" transform="rotate(90 1534.4 315.721)" fill="#EF4358"/>
<circle cx="1534.4" cy="367.401" r="3.52358" transform="rotate(90 1534.4 367.401)" fill="#EF4358"/>
<circle cx="1534.4" cy="419.08" r="3.52358" transform="rotate(90 1534.4 419.08)" fill="#EF4358"/>
<circle cx="1534.4" cy="470.759" r="3.52358" transform="rotate(90 1534.4 470.759)" fill="#EF4358"/>
<circle cx="1534.4" cy="522.438" r="3.52358" transform="rotate(90 1534.4 522.438)" fill="#EF4358"/>
<circle cx="1482.72" cy="315.721" r="3.52358" transform="rotate(90 1482.72 315.721)" fill="#EF4358"/>
<circle cx="1482.72" cy="367.401" r="3.52358" transform="rotate(90 1482.72 367.401)" fill="#EF4358"/>
<circle cx="1482.72" cy="419.08" r="3.52358" transform="rotate(90 1482.72 419.08)" fill="#EF4358"/>
<circle cx="1482.72" cy="470.759" r="3.52358" transform="rotate(90 1482.72 470.759)" fill="#EF4358"/>
<circle cx="1482.72" cy="522.438" r="3.52358" transform="rotate(90 1482.72 522.438)" fill="#EF4358"/>
<circle cx="1431.04" cy="315.721" r="3.52358" transform="rotate(90 1431.04 315.721)" fill="#EF4358"/>
<circle cx="1431.04" cy="367.401" r="3.52358" transform="rotate(90 1431.04 367.401)" fill="#EF4358"/>
<circle cx="1431.04" cy="419.08" r="3.52358" transform="rotate(90 1431.04 419.08)" fill="#EF4358"/>
<circle cx="1431.04" cy="470.759" r="3.52358" transform="rotate(90 1431.04 470.759)" fill="#EF4358"/>
<circle cx="1431.04" cy="522.438" r="3.52358" transform="rotate(90 1431.04 522.438)" fill="#EF4358"/>
<circle cx="1379.36" cy="315.721" r="3.52358" transform="rotate(90 1379.36 315.721)" fill="#EF4358"/>
<circle cx="1379.36" cy="367.401" r="3.52358" transform="rotate(90 1379.36 367.401)" fill="#EF4358"/>
<circle cx="1379.36" cy="419.08" r="3.52358" transform="rotate(90 1379.36 419.08)" fill="#EF4358"/>
<circle cx="1379.36" cy="470.759" r="3.52358" transform="rotate(90 1379.36 470.759)" fill="#EF4358"/>
<circle cx="1379.36" cy="522.438" r="3.52358" transform="rotate(90 1379.36 522.438)" fill="#EF4358"/>
<circle cx="1327.68" cy="367.401" r="3.52358" transform="rotate(90 1327.68 367.401)" fill="#EF4358"/>
<circle cx="1327.68" cy="419.08" r="3.52358" transform="rotate(90 1327.68 419.08)" fill="#EF4358"/>
<circle cx="1327.68" cy="470.759" r="3.52358" transform="rotate(90 1327.68 470.759)" fill="#EF4358"/>
<circle cx="1327.68" cy="522.438" r="3.52358" transform="rotate(90 1327.68 522.438)" fill="#EF4358"/>
<circle cx="1276" cy="315.721" r="3.52358" transform="rotate(90 1276 315.721)" fill="#EF4358"/>
<circle cx="1276" cy="367.401" r="3.52358" transform="rotate(90 1276 367.401)" fill="#EF4358"/>
<circle cx="1276" cy="419.08" r="3.52358" transform="rotate(90 1276 419.08)" fill="#EF4358"/>
<circle cx="1276" cy="470.759" r="3.52358" transform="rotate(90 1276 470.759)" fill="#EF4358"/>
<circle cx="1276" cy="522.438" r="3.52358" transform="rotate(90 1276 522.438)" fill="#EF4358"/>
<circle cx="1224.33" cy="315.721" r="3.52358" transform="rotate(90 1224.33 315.721)" fill="#EF4358"/>
<circle cx="1224.33" cy="367.401" r="3.52358" transform="rotate(90 1224.33 367.401)" fill="#EF4358"/>
<circle cx="1224.33" cy="419.08" r="3.52358" transform="rotate(90 1224.33 419.08)" fill="#EF4358"/>
<circle cx="1224.33" cy="470.759" r="3.52358" transform="rotate(90 1224.33 470.759)" fill="#EF4358"/>
<circle cx="1224.33" cy="522.438" r="3.52358" transform="rotate(90 1224.33 522.438)" fill="#EF4358"/>
<g filter="url(#filter0_d)">
<path d="M158 487.044C158 473.407 164.958 460.757 176.913 454.196C244.127 417.312 488.444 300 877 300C1265.56 300 1509.87 417.312 1577.09 454.196C1589.04 460.757 1596 473.407 1596 487.044V533C1596 555.091 1578.09 573 1556 573H198C175.909 573 158 555.091 158 533V487.044Z" fill="#EEEEEE"/>
</g>
<circle cx="128" cy="381" r="14.5" stroke="#FFBA49" stroke-width="5"/>
<defs>
<filter id="filter0_d" x="105.146" y="265.146" width="1543.71" height="378.707" filterUnits="userSpaceOnUse" color-interpolation-filters="sRGB">
<feFlood flood-opacity="0" result="BackgroundImageFix"/>
<feColorMatrix in="SourceAlpha" type="matrix" values="0 0 0 0 0 0 0 0 0 0 0 0 0 0 0 0 0 0 127 0"/>
<feOffset dy="18"/>
<feGaussianBlur stdDeviation="26.4269"/>
<feColorMatrix type="matrix" values="0 0 0 0 0.845 0 0 0 0 0.892895 0 0 0 0 0.975 0 0 0 0.5 0"/>
<feBlend mode="normal" in2="BackgroundImageFix" result="effect1_dropShadow"/>
<feBlend mode="normal" in="SourceGraphic" in2="effect1_dropShadow" result="shape"/>
</filter>
</defs>
</svg>
