<svg width="1920" height="1209" viewBox="0 0 1920 1209" fill="none" xmlns="http://www.w3.org/2000/svg">
<rect width="1920" height="1209" fill="url(#paint0_linear)"/>
<path fill-rule="evenodd" clip-rule="evenodd" d="M1222.54 862.136C1222.33 862.226 1222.13 862.358 1221.96 862.525C1221.8 862.69 1221.67 862.887 1221.58 863.104C1221.49 863.321 1221.44 863.554 1221.44 863.789C1221.44 864.023 1221.49 864.256 1221.58 864.473C1221.67 864.69 1221.8 864.887 1221.96 865.053L1229.63 872.715H1185.79C1185.31 872.715 1184.86 872.903 1184.52 873.238C1184.19 873.573 1184 874.027 1184 874.5C1184 874.974 1184.19 875.428 1184.52 875.763C1184.86 876.098 1185.31 876.286 1185.79 876.286H1229.63L1221.96 883.948C1221.63 884.284 1221.44 884.738 1221.44 885.212C1221.44 885.687 1221.63 886.141 1221.96 886.476C1222.3 886.812 1222.75 887 1223.23 887C1223.7 887 1224.16 886.812 1224.49 886.476L1235.2 875.764C1235.37 875.599 1235.5 875.402 1235.59 875.185C1235.68 874.968 1235.73 874.735 1235.73 874.5C1235.73 874.266 1235.68 874.033 1235.59 873.816C1235.5 873.599 1235.37 873.402 1235.2 873.236L1224.49 862.525C1224.33 862.358 1224.13 862.226 1223.91 862.136C1223.7 862.046 1223.46 862 1223.23 862C1222.99 862 1222.76 862.046 1222.54 862.136Z" fill="black"/>
<path opacity="0.3" fill-rule="evenodd" clip-rule="evenodd" d="M1132.09 866.916C1132.22 866.971 1132.34 867.052 1132.44 867.154C1132.54 867.256 1132.63 867.377 1132.68 867.51C1132.74 867.643 1132.76 867.786 1132.76 867.93C1132.76 868.074 1132.74 868.216 1132.68 868.349C1132.63 868.482 1132.54 868.603 1132.44 868.705L1127.74 873.405H1154.63C1154.92 873.405 1155.2 873.52 1155.41 873.726C1155.61 873.931 1155.73 874.21 1155.73 874.5C1155.73 874.79 1155.61 875.069 1155.41 875.274C1155.2 875.48 1154.92 875.595 1154.63 875.595H1127.74L1132.44 880.295C1132.65 880.501 1132.76 880.78 1132.76 881.071C1132.76 881.361 1132.65 881.64 1132.44 881.846C1132.24 882.052 1131.96 882.167 1131.67 882.167C1131.38 882.167 1131.1 882.052 1130.89 881.846L1124.32 875.275C1124.22 875.174 1124.14 875.053 1124.08 874.92C1124.03 874.787 1124 874.644 1124 874.5C1124 874.356 1124.03 874.213 1124.08 874.08C1124.14 873.947 1124.22 873.826 1124.32 873.725L1130.89 867.154C1130.99 867.052 1131.11 866.971 1131.25 866.916C1131.38 866.861 1131.52 866.833 1131.67 866.833C1131.81 866.833 1131.95 866.861 1132.09 866.916Z" fill="black"/>
<circle cx="942.439" cy="691.722" r="3.52358" transform="rotate(90 942.439 691.722)" fill="#70C217"/>
<circle cx="942.439" cy="743.401" r="3.52358" transform="rotate(90 942.439 743.401)" fill="#70C217"/>
<circle cx="942.439" cy="795.08" r="3.52358" transform="rotate(90 942.439 795.08)" fill="#70C217"/>
<circle cx="942.439" cy="846.759" r="3.52358" transform="rotate(90 942.439 846.759)" fill="#70C217"/>
<circle cx="942.439" cy="898.438" r="3.52358" transform="rotate(90 942.439 898.438)" fill="#70C217"/>
<circle cx="890.76" cy="691.722" r="3.52358" transform="rotate(90 890.76 691.722)" fill="#70C217"/>
<circle cx="890.76" cy="743.401" r="3.52358" transform="rotate(90 890.76 743.401)" fill="#70C217"/>
<circle cx="890.76" cy="795.08" r="3.52358" transform="rotate(90 890.76 795.08)" fill="#70C217"/>
<circle cx="890.76" cy="846.759" r="3.52358" transform="rotate(90 890.76 846.759)" fill="#70C217"/>
<circle cx="890.76" cy="898.438" r="3.52358" transform="rotate(90 890.76 898.438)" fill="#70C217"/>
<circle cx="839.08" cy="691.722" r="3.52358" transform="rotate(90 839.08 691.722)" fill="#70C217"/>
<circle cx="839.08" cy="743.401" r="3.52358" transform="rotate(90 839.08 743.401)" fill="#70C217"/>
<circle cx="839.08" cy="795.08" r="3.52358" transform="rotate(90 839.08 795.08)" fill="#70C217"/>
<circle cx="839.08" cy="846.759" r="3.52358" transform="rotate(90 839.08 846.759)" fill="#70C217"/>
<circle cx="839.08" cy="898.438" r="3.52358" transform="rotate(90 839.08 898.438)" fill="#70C217"/>
<circle cx="787.401" cy="691.722" r="3.52358" transform="rotate(90 787.401 691.722)" fill="#70C217"/>
<circle cx="787.401" cy="743.401" r="3.52358" transform="rotate(90 787.401 743.401)" fill="#70C217"/>
<circle cx="787.401" cy="795.08" r="3.52358" transform="rotate(90 787.401 795.08)" fill="#70C217"/>
<circle cx="787.401" cy="846.759" r="3.52358" transform="rotate(90 787.401 846.759)" fill="#70C217"/>
<circle cx="787.401" cy="898.438" r="3.52358" transform="rotate(90 787.401 898.438)" fill="#70C217"/>
<circle cx="735.722" cy="691.722" r="3.52358" transform="rotate(90 735.722 691.722)" fill="#70C217"/>
<circle cx="735.722" cy="743.401" r="3.52358" transform="rotate(90 735.722 743.401)" fill="#70C217"/>
<circle cx="735.722" cy="795.08" r="3.52358" transform="rotate(90 735.722 795.08)" fill="#70C217"/>
<circle cx="735.722" cy="846.759" r="3.52358" transform="rotate(90 735.722 846.759)" fill="#70C217"/>
<circle cx="735.722" cy="898.438" r="3.52358" transform="rotate(90 735.722 898.438)" fill="#70C217"/>
<circle cx="684.043" cy="691.722" r="3.52358" transform="rotate(90 684.043 691.722)" fill="#70C217"/>
<circle cx="684.043" cy="743.401" r="3.52358" transform="rotate(90 684.043 743.401)" fill="#70C217"/>
<circle cx="684.043" cy="795.08" r="3.52358" transform="rotate(90 684.043 795.08)" fill="#70C217"/>
<circle cx="684.043" cy="846.759" r="3.52358" transform="rotate(90 684.043 846.759)" fill="#70C217"/>
<circle cx="684.043" cy="898.438" r="3.52358" transform="rotate(90 684.043 898.438)" fill="#70C217"/>
<circle cx="632.364" cy="691.722" r="3.52358" transform="rotate(90 632.364 691.722)" fill="#70C217"/>
<circle cx="632.364" cy="743.401" r="3.52358" transform="rotate(90 632.364 743.401)" fill="#70C217"/>
<circle cx="632.364" cy="795.08" r="3.52358" transform="rotate(90 632.364 795.08)" fill="#70C217"/>
<circle cx="632.364" cy="846.759" r="3.52358" transform="rotate(90 632.364 846.759)" fill="#70C217"/>
<circle cx="632.364" cy="898.438" r="3.52358" transform="rotate(90 632.364 898.438)" fill="#70C217"/>
<circle cx="580.684" cy="691.722" r="3.52358" transform="rotate(90 580.684 691.722)" fill="#70C217"/>
<circle cx="580.684" cy="743.401" r="3.52358" transform="rotate(90 580.684 743.401)" fill="#70C217"/>
<circle cx="580.684" cy="795.08" r="3.52358" transform="rotate(90 580.684 795.08)" fill="#70C217"/>
<circle cx="580.684" cy="846.759" r="3.52358" transform="rotate(90 580.684 846.759)" fill="#70C217"/>
<circle cx="580.684" cy="898.438" r="3.52358" transform="rotate(90 580.684 898.438)" fill="#70C217"/>
<circle cx="529.005" cy="691.722" r="3.52358" transform="rotate(90 529.005 691.722)" fill="#70C217"/>
<circle cx="529.005" cy="743.401" r="3.52358" transform="rotate(90 529.005 743.401)" fill="#70C217"/>
<circle cx="529.005" cy="795.08" r="3.52358" transform="rotate(90 529.005 795.08)" fill="#70C217"/>
<circle cx="529.005" cy="846.759" r="3.52358" transform="rotate(90 529.005 846.759)" fill="#70C217"/>
<circle cx="529.005" cy="898.438" r="3.52358" transform="rotate(90 529.005 898.438)" fill="#70C217"/>
<circle cx="477.326" cy="691.722" r="3.52358" transform="rotate(90 477.326 691.722)" fill="#70C217"/>
<circle cx="477.326" cy="743.401" r="3.52358" transform="rotate(90 477.326 743.401)" fill="#70C217"/>
<circle cx="477.326" cy="795.08" r="3.52358" transform="rotate(90 477.326 795.08)" fill="#70C217"/>
<circle cx="477.326" cy="846.759" r="3.52358" transform="rotate(90 477.326 846.759)" fill="#70C217"/>
<circle cx="477.326" cy="898.438" r="3.52358" transform="rotate(90 477.326 898.438)" fill="#70C217"/>
<circle cx="1448.64" cy="410.524" r="3.52358" transform="rotate(90 1448.64 410.524)" fill="#EF4358"/>
<circle cx="1448.64" cy="462.203" r="3.52358" transform="rotate(90 1448.64 462.203)" fill="#EF4358"/>
<circle cx="1448.64" cy="513.882" r="3.52358" transform="rotate(90 1448.64 513.882)" fill="#EF4358"/>
<circle cx="1448.64" cy="565.561" r="3.52358" transform="rotate(90 1448.64 565.561)" fill="#EF4358"/>
<circle cx="1448.64" cy="617.24" r="3.52358" transform="rotate(90 1448.64 617.24)" fill="#EF4358"/>
<circle cx="1396.96" cy="410.524" r="3.52358" transform="rotate(90 1396.96 410.524)" fill="#EF4358"/>
<circle cx="1396.96" cy="462.203" r="3.52358" transform="rotate(90 1396.96 462.203)" fill="#EF4358"/>
<circle cx="1396.96" cy="513.882" r="3.52358" transform="rotate(90 1396.96 513.882)" fill="#EF4358"/>
<circle cx="1396.96" cy="565.561" r="3.52358" transform="rotate(90 1396.96 565.561)" fill="#EF4358"/>
<circle cx="1396.96" cy="617.24" r="3.52358" transform="rotate(90 1396.96 617.24)" fill="#EF4358"/>
<circle cx="1345.28" cy="410.524" r="3.52358" transform="rotate(90 1345.28 410.524)" fill="#EF4358"/>
<circle cx="1345.28" cy="462.203" r="3.52358" transform="rotate(90 1345.28 462.203)" fill="#EF4358"/>
<circle cx="1345.28" cy="513.882" r="3.52358" transform="rotate(90 1345.28 513.882)" fill="#EF4358"/>
<circle cx="1345.28" cy="565.561" r="3.52358" transform="rotate(90 1345.28 565.561)" fill="#EF4358"/>
<circle cx="1345.28" cy="617.24" r="3.52358" transform="rotate(90 1345.28 617.24)" fill="#EF4358"/>
<circle cx="1293.6" cy="410.524" r="3.52358" transform="rotate(90 1293.6 410.524)" fill="#EF4358"/>
<circle cx="1293.6" cy="462.203" r="3.52358" transform="rotate(90 1293.6 462.203)" fill="#EF4358"/>
<circle cx="1293.6" cy="513.882" r="3.52358" transform="rotate(90 1293.6 513.882)" fill="#EF4358"/>
<circle cx="1293.6" cy="565.561" r="3.52358" transform="rotate(90 1293.6 565.561)" fill="#EF4358"/>
<circle cx="1293.6" cy="617.24" r="3.52358" transform="rotate(90 1293.6 617.24)" fill="#EF4358"/>
<circle cx="1241.92" cy="410.524" r="3.52358" transform="rotate(90 1241.92 410.524)" fill="#EF4358"/>
<circle cx="1241.92" cy="462.203" r="3.52358" transform="rotate(90 1241.92 462.203)" fill="#EF4358"/>
<circle cx="1241.92" cy="513.882" r="3.52358" transform="rotate(90 1241.92 513.882)" fill="#EF4358"/>
<circle cx="1241.92" cy="565.561" r="3.52358" transform="rotate(90 1241.92 565.561)" fill="#EF4358"/>
<circle cx="1241.92" cy="617.24" r="3.52358" transform="rotate(90 1241.92 617.24)" fill="#EF4358"/>
<circle cx="1190.24" cy="410.524" r="3.52358" transform="rotate(90 1190.24 410.524)" fill="#EF4358"/>
<circle cx="1190.24" cy="462.203" r="3.52358" transform="rotate(90 1190.24 462.203)" fill="#EF4358"/>
<circle cx="1190.24" cy="513.882" r="3.52358" transform="rotate(90 1190.24 513.882)" fill="#EF4358"/>
<circle cx="1190.24" cy="565.561" r="3.52358" transform="rotate(90 1190.24 565.561)" fill="#EF4358"/>
<circle cx="1190.24" cy="617.24" r="3.52358" transform="rotate(90 1190.24 617.24)" fill="#EF4358"/>
<circle cx="1138.56" cy="410.524" r="3.52358" transform="rotate(90 1138.56 410.524)" fill="#EF4358"/>
<circle cx="1138.56" cy="462.203" r="3.52358" transform="rotate(90 1138.56 462.203)" fill="#EF4358"/>
<circle cx="1138.56" cy="513.882" r="3.52358" transform="rotate(90 1138.56 513.882)" fill="#EF4358"/>
<circle cx="1138.56" cy="565.561" r="3.52358" transform="rotate(90 1138.56 565.561)" fill="#EF4358"/>
<circle cx="1138.56" cy="617.24" r="3.52358" transform="rotate(90 1138.56 617.24)" fill="#EF4358"/>
<circle cx="1086.88" cy="410.524" r="3.52358" transform="rotate(90 1086.88 410.524)" fill="#EF4358"/>
<circle cx="1086.88" cy="462.203" r="3.52358" transform="rotate(90 1086.88 462.203)" fill="#EF4358"/>
<circle cx="1086.88" cy="513.882" r="3.52358" transform="rotate(90 1086.88 513.882)" fill="#EF4358"/>
<circle cx="1086.88" cy="565.561" r="3.52358" transform="rotate(90 1086.88 565.561)" fill="#EF4358"/>
<circle cx="1086.88" cy="617.24" r="3.52358" transform="rotate(90 1086.88 617.24)" fill="#EF4358"/>
<circle cx="1035.2" cy="410.524" r="3.52358" transform="rotate(90 1035.2 410.524)" fill="#EF4358"/>
<circle cx="1035.2" cy="462.203" r="3.52358" transform="rotate(90 1035.2 462.203)" fill="#EF4358"/>
<circle cx="1035.2" cy="513.882" r="3.52358" transform="rotate(90 1035.2 513.882)" fill="#EF4358"/>
<circle cx="1035.2" cy="565.561" r="3.52358" transform="rotate(90 1035.2 565.561)" fill="#EF4358"/>
<circle cx="1035.2" cy="617.24" r="3.52358" transform="rotate(90 1035.2 617.24)" fill="#EF4358"/>
<circle cx="983.524" cy="410.524" r="3.52358" transform="rotate(90 983.524 410.524)" fill="#EF4358"/>
<circle cx="983.524" cy="462.203" r="3.52358" transform="rotate(90 983.524 462.203)" fill="#EF4358"/>
<circle cx="983.524" cy="513.882" r="3.52358" transform="rotate(90 983.524 513.882)" fill="#EF4358"/>
<circle cx="983.524" cy="565.561" r="3.52358" transform="rotate(90 983.524 565.561)" fill="#EF4358"/>
<circle cx="983.524" cy="617.24" r="3.52358" transform="rotate(90 983.524 617.24)" fill="#EF4358"/>
<defs>
<linearGradient id="paint0_linear" x1="960" y1="0" x2="960" y2="1209" gradientUnits="userSpaceOnUse">
<stop stop-color="#ECF0FD" stop-opacity="0"/>
<stop offset="0.14324" stop-color="#ECF0FD" stop-opacity="0.53"/>
<stop offset="0.458333" stop-color="#ECF0FD"/>
<stop offset="0.843325" stop-color="#ECF0FD" stop-opacity="0.43"/>
<stop offset="1" stop-color="#ECF0FD" stop-opacity="0"/>
</linearGradient>
</defs>
</svg>
