<svg width="1920" height="1101" viewBox="0 0 1920 1101" fill="none" xmlns="http://www.w3.org/2000/svg">
<ellipse cx="942.439" cy="629.93" rx="3.20882" ry="3.52358" transform="rotate(90 942.439 629.93)" fill="#70C217"/>
<ellipse cx="942.439" cy="676.993" rx="3.20882" ry="3.52358" transform="rotate(90 942.439 676.993)" fill="#70C217"/>
<ellipse cx="942.439" cy="724.055" rx="3.20882" ry="3.52358" transform="rotate(90 942.439 724.055)" fill="#70C217"/>
<ellipse cx="942.439" cy="771.118" rx="3.20882" ry="3.52358" transform="rotate(90 942.439 771.118)" fill="#70C217"/>
<ellipse cx="942.439" cy="818.181" rx="3.20882" ry="3.52358" transform="rotate(90 942.439 818.181)" fill="#70C217"/>
<ellipse cx="890.76" cy="629.93" rx="3.20882" ry="3.52358" transform="rotate(90 890.76 629.93)" fill="#70C217"/>
<ellipse cx="890.76" cy="676.993" rx="3.20882" ry="3.52358" transform="rotate(90 890.76 676.993)" fill="#70C217"/>
<ellipse cx="890.76" cy="724.055" rx="3.20882" ry="3.52358" transform="rotate(90 890.76 724.055)" fill="#70C217"/>
<ellipse cx="890.76" cy="771.118" rx="3.20882" ry="3.52358" transform="rotate(90 890.76 771.118)" fill="#70C217"/>
<ellipse cx="890.76" cy="818.181" rx="3.20882" ry="3.52358" transform="rotate(90 890.76 818.181)" fill="#70C217"/>
<ellipse cx="839.08" cy="629.93" rx="3.20882" ry="3.52358" transform="rotate(90 839.08 629.93)" fill="#70C217"/>
<ellipse cx="839.08" cy="676.993" rx="3.20882" ry="3.52358" transform="rotate(90 839.08 676.993)" fill="#70C217"/>
<ellipse cx="839.08" cy="724.055" rx="3.20882" ry="3.52358" transform="rotate(90 839.08 724.055)" fill="#70C217"/>
<ellipse cx="839.08" cy="771.118" rx="3.20882" ry="3.52358" transform="rotate(90 839.08 771.118)" fill="#70C217"/>
<ellipse cx="839.08" cy="818.181" rx="3.20882" ry="3.52358" transform="rotate(90 839.08 818.181)" fill="#70C217"/>
<ellipse cx="787.401" cy="629.93" rx="3.20882" ry="3.52358" transform="rotate(90 787.401 629.93)" fill="#70C217"/>
<ellipse cx="787.401" cy="676.993" rx="3.20882" ry="3.52358" transform="rotate(90 787.401 676.993)" fill="#70C217"/>
<ellipse cx="787.401" cy="724.055" rx="3.20882" ry="3.52358" transform="rotate(90 787.401 724.055)" fill="#70C217"/>
<ellipse cx="787.401" cy="771.118" rx="3.20882" ry="3.52358" transform="rotate(90 787.401 771.118)" fill="#70C217"/>
<ellipse cx="787.401" cy="818.181" rx="3.20882" ry="3.52358" transform="rotate(90 787.401 818.181)" fill="#70C217"/>
<ellipse cx="735.722" cy="629.93" rx="3.20882" ry="3.52358" transform="rotate(90 735.722 629.93)" fill="#70C217"/>
<ellipse cx="735.722" cy="676.993" rx="3.20882" ry="3.52358" transform="rotate(90 735.722 676.993)" fill="#70C217"/>
<ellipse cx="735.722" cy="724.055" rx="3.20882" ry="3.52358" transform="rotate(90 735.722 724.055)" fill="#70C217"/>
<ellipse cx="735.722" cy="771.118" rx="3.20882" ry="3.52358" transform="rotate(90 735.722 771.118)" fill="#70C217"/>
<ellipse cx="735.722" cy="818.181" rx="3.20882" ry="3.52358" transform="rotate(90 735.722 818.181)" fill="#70C217"/>
<ellipse cx="684.043" cy="629.93" rx="3.20882" ry="3.52358" transform="rotate(90 684.043 629.93)" fill="#70C217"/>
<ellipse cx="684.043" cy="676.993" rx="3.20882" ry="3.52358" transform="rotate(90 684.043 676.993)" fill="#70C217"/>
<ellipse cx="684.043" cy="724.055" rx="3.20882" ry="3.52358" transform="rotate(90 684.043 724.055)" fill="#70C217"/>
<ellipse cx="684.043" cy="771.118" rx="3.20882" ry="3.52358" transform="rotate(90 684.043 771.118)" fill="#70C217"/>
<ellipse cx="684.043" cy="818.181" rx="3.20882" ry="3.52358" transform="rotate(90 684.043 818.181)" fill="#70C217"/>
<ellipse cx="632.364" cy="629.93" rx="3.20882" ry="3.52358" transform="rotate(90 632.364 629.93)" fill="#70C217"/>
<ellipse cx="632.364" cy="676.993" rx="3.20882" ry="3.52358" transform="rotate(90 632.364 676.993)" fill="#70C217"/>
<ellipse cx="632.364" cy="724.055" rx="3.20882" ry="3.52358" transform="rotate(90 632.364 724.055)" fill="#70C217"/>
<ellipse cx="632.364" cy="771.118" rx="3.20882" ry="3.52358" transform="rotate(90 632.364 771.118)" fill="#70C217"/>
<ellipse cx="632.364" cy="818.181" rx="3.20882" ry="3.52358" transform="rotate(90 632.364 818.181)" fill="#70C217"/>
<ellipse cx="580.684" cy="629.93" rx="3.20882" ry="3.52358" transform="rotate(90 580.684 629.93)" fill="#70C217"/>
<ellipse cx="580.684" cy="676.993" rx="3.20882" ry="3.52358" transform="rotate(90 580.684 676.993)" fill="#70C217"/>
<ellipse cx="580.684" cy="724.055" rx="3.20882" ry="3.52358" transform="rotate(90 580.684 724.055)" fill="#70C217"/>
<ellipse cx="580.684" cy="771.118" rx="3.20882" ry="3.52358" transform="rotate(90 580.684 771.118)" fill="#70C217"/>
<ellipse cx="580.684" cy="818.181" rx="3.20882" ry="3.52358" transform="rotate(90 580.684 818.181)" fill="#70C217"/>
<ellipse cx="529.005" cy="629.93" rx="3.20882" ry="3.52358" transform="rotate(90 529.005 629.93)" fill="#70C217"/>
<ellipse cx="529.005" cy="676.993" rx="3.20882" ry="3.52358" transform="rotate(90 529.005 676.993)" fill="#70C217"/>
<ellipse cx="529.005" cy="724.055" rx="3.20882" ry="3.52358" transform="rotate(90 529.005 724.055)" fill="#70C217"/>
<ellipse cx="529.005" cy="771.118" rx="3.20882" ry="3.52358" transform="rotate(90 529.005 771.118)" fill="#70C217"/>
<ellipse cx="529.005" cy="818.181" rx="3.20882" ry="3.52358" transform="rotate(90 529.005 818.181)" fill="#70C217"/>
<ellipse cx="477.326" cy="629.93" rx="3.20882" ry="3.52358" transform="rotate(90 477.326 629.93)" fill="#70C217"/>
<ellipse cx="477.326" cy="676.993" rx="3.20882" ry="3.52358" transform="rotate(90 477.326 676.993)" fill="#70C217"/>
<ellipse cx="477.326" cy="724.055" rx="3.20882" ry="3.52358" transform="rotate(90 477.326 724.055)" fill="#70C217"/>
<ellipse cx="477.326" cy="771.118" rx="3.20882" ry="3.52358" transform="rotate(90 477.326 771.118)" fill="#70C217"/>
<ellipse cx="477.326" cy="818.181" rx="3.20882" ry="3.52358" transform="rotate(90 477.326 818.181)" fill="#70C217"/>
<ellipse cx="1448.64" cy="373.852" rx="3.20882" ry="3.52358" transform="rotate(90 1448.64 373.852)" fill="#EF4358"/>
<ellipse cx="1448.64" cy="420.914" rx="3.20882" ry="3.52358" transform="rotate(90 1448.64 420.914)" fill="#EF4358"/>
<ellipse cx="1448.64" cy="467.977" rx="3.20882" ry="3.52358" transform="rotate(90 1448.64 467.977)" fill="#EF4358"/>
<ellipse cx="1448.64" cy="515.04" rx="3.20882" ry="3.52358" transform="rotate(90 1448.64 515.04)" fill="#EF4358"/>
<ellipse cx="1448.64" cy="562.102" rx="3.20882" ry="3.52358" transform="rotate(90 1448.64 562.102)" fill="#EF4358"/>
<ellipse cx="1396.96" cy="373.851" rx="3.20882" ry="3.52358" transform="rotate(90 1396.96 373.851)" fill="#EF4358"/>
<ellipse cx="1396.96" cy="420.914" rx="3.20882" ry="3.52358" transform="rotate(90 1396.96 420.914)" fill="#EF4358"/>
<ellipse cx="1396.96" cy="467.977" rx="3.20882" ry="3.52358" transform="rotate(90 1396.96 467.977)" fill="#EF4358"/>
<ellipse cx="1396.96" cy="515.04" rx="3.20882" ry="3.52358" transform="rotate(90 1396.96 515.04)" fill="#EF4358"/>
<ellipse cx="1396.96" cy="562.102" rx="3.20882" ry="3.52358" transform="rotate(90 1396.96 562.102)" fill="#EF4358"/>
<ellipse cx="1345.28" cy="373.851" rx="3.20882" ry="3.52358" transform="rotate(90 1345.28 373.851)" fill="#EF4358"/>
<ellipse cx="1345.28" cy="420.914" rx="3.20882" ry="3.52358" transform="rotate(90 1345.28 420.914)" fill="#EF4358"/>
<ellipse cx="1345.28" cy="467.977" rx="3.20882" ry="3.52358" transform="rotate(90 1345.28 467.977)" fill="#EF4358"/>
<ellipse cx="1345.28" cy="515.04" rx="3.20882" ry="3.52358" transform="rotate(90 1345.28 515.04)" fill="#EF4358"/>
<ellipse cx="1345.28" cy="562.102" rx="3.20882" ry="3.52358" transform="rotate(90 1345.28 562.102)" fill="#EF4358"/>
<ellipse cx="1293.6" cy="373.851" rx="3.20882" ry="3.52358" transform="rotate(90 1293.6 373.851)" fill="#EF4358"/>
<ellipse cx="1293.6" cy="420.914" rx="3.20882" ry="3.52358" transform="rotate(90 1293.6 420.914)" fill="#EF4358"/>
<ellipse cx="1293.6" cy="467.977" rx="3.20882" ry="3.52358" transform="rotate(90 1293.6 467.977)" fill="#EF4358"/>
<ellipse cx="1293.6" cy="515.04" rx="3.20882" ry="3.52358" transform="rotate(90 1293.6 515.04)" fill="#EF4358"/>
<ellipse cx="1293.6" cy="562.102" rx="3.20882" ry="3.52358" transform="rotate(90 1293.6 562.102)" fill="#EF4358"/>
<ellipse cx="1241.92" cy="373.851" rx="3.20882" ry="3.52358" transform="rotate(90 1241.92 373.851)" fill="#EF4358"/>
<ellipse cx="1241.92" cy="420.914" rx="3.20882" ry="3.52358" transform="rotate(90 1241.92 420.914)" fill="#EF4358"/>
<ellipse cx="1241.92" cy="467.977" rx="3.20882" ry="3.52358" transform="rotate(90 1241.92 467.977)" fill="#EF4358"/>
<ellipse cx="1241.92" cy="515.04" rx="3.20882" ry="3.52358" transform="rotate(90 1241.92 515.04)" fill="#EF4358"/>
<ellipse cx="1241.92" cy="562.102" rx="3.20882" ry="3.52358" transform="rotate(90 1241.92 562.102)" fill="#EF4358"/>
<ellipse cx="1190.24" cy="373.851" rx="3.20882" ry="3.52358" transform="rotate(90 1190.24 373.851)" fill="#EF4358"/>
<ellipse cx="1190.24" cy="420.914" rx="3.20882" ry="3.52358" transform="rotate(90 1190.24 420.914)" fill="#EF4358"/>
<ellipse cx="1190.24" cy="467.977" rx="3.20882" ry="3.52358" transform="rotate(90 1190.24 467.977)" fill="#EF4358"/>
<ellipse cx="1190.24" cy="515.04" rx="3.20882" ry="3.52358" transform="rotate(90 1190.24 515.04)" fill="#EF4358"/>
<ellipse cx="1190.24" cy="562.102" rx="3.20882" ry="3.52358" transform="rotate(90 1190.24 562.102)" fill="#EF4358"/>
<ellipse cx="1138.56" cy="373.851" rx="3.20882" ry="3.52358" transform="rotate(90 1138.56 373.851)" fill="#EF4358"/>
<ellipse cx="1138.56" cy="420.914" rx="3.20882" ry="3.52358" transform="rotate(90 1138.56 420.914)" fill="#EF4358"/>
<ellipse cx="1138.56" cy="467.977" rx="3.20882" ry="3.52358" transform="rotate(90 1138.56 467.977)" fill="#EF4358"/>
<ellipse cx="1138.56" cy="515.04" rx="3.20882" ry="3.52358" transform="rotate(90 1138.56 515.04)" fill="#EF4358"/>
<ellipse cx="1138.56" cy="562.102" rx="3.20882" ry="3.52358" transform="rotate(90 1138.56 562.102)" fill="#EF4358"/>
<ellipse cx="1086.88" cy="373.851" rx="3.20882" ry="3.52358" transform="rotate(90 1086.88 373.851)" fill="#EF4358"/>
<ellipse cx="1086.88" cy="420.914" rx="3.20882" ry="3.52358" transform="rotate(90 1086.88 420.914)" fill="#EF4358"/>
<ellipse cx="1086.88" cy="467.977" rx="3.20882" ry="3.52358" transform="rotate(90 1086.88 467.977)" fill="#EF4358"/>
<ellipse cx="1086.88" cy="515.04" rx="3.20882" ry="3.52358" transform="rotate(90 1086.88 515.04)" fill="#EF4358"/>
<ellipse cx="1086.88" cy="562.102" rx="3.20882" ry="3.52358" transform="rotate(90 1086.88 562.102)" fill="#EF4358"/>
<ellipse cx="1035.2" cy="373.851" rx="3.20882" ry="3.52358" transform="rotate(90 1035.2 373.851)" fill="#EF4358"/>
<ellipse cx="1035.2" cy="420.914" rx="3.20882" ry="3.52358" transform="rotate(90 1035.2 420.914)" fill="#EF4358"/>
<ellipse cx="1035.2" cy="467.977" rx="3.20882" ry="3.52358" transform="rotate(90 1035.2 467.977)" fill="#EF4358"/>
<ellipse cx="1035.2" cy="515.04" rx="3.20882" ry="3.52358" transform="rotate(90 1035.2 515.04)" fill="#EF4358"/>
<ellipse cx="1035.2" cy="562.102" rx="3.20882" ry="3.52358" transform="rotate(90 1035.2 562.102)" fill="#EF4358"/>
<ellipse cx="983.524" cy="373.851" rx="3.20882" ry="3.52358" transform="rotate(90 983.524 373.851)" fill="#EF4358"/>
<ellipse cx="983.524" cy="420.914" rx="3.20882" ry="3.52358" transform="rotate(90 983.524 420.914)" fill="#EF4358"/>
<ellipse cx="983.524" cy="467.977" rx="3.20882" ry="3.52358" transform="rotate(90 983.524 467.977)" fill="#EF4358"/>
<ellipse cx="983.524" cy="515.04" rx="3.20882" ry="3.52358" transform="rotate(90 983.524 515.04)" fill="#EF4358"/>
<ellipse cx="983.524" cy="562.102" rx="3.20882" ry="3.52358" transform="rotate(90 983.524 562.102)" fill="#EF4358"/>
</svg>
