<svg width="1920" height="1182" viewBox="0 0 1920 1182" fill="none" xmlns="http://www.w3.org/2000/svg">
<path d="M0 41C0 41 584.914 71 960 71C1335.09 71 1920 41 1920 41V1151C1920 1151 1335.09 1121 960 1121C584.914 1121 0 1151 0 1151L0 41Z" fill="#7854F7"/>
<path opacity="0.05" fill-rule="evenodd" clip-rule="evenodd" d="M1319.71 46.9052C1324.46 40.4526 1331.58 37.0564 1341.07 36.3772C1358.36 35.0188 1368.2 43.1695 1370.57 60.8292C1381.08 131.808 1392.61 191.919 1404.82 241.162L1479.07 99.5447C1485.86 86.6395 1494.33 79.8473 1504.5 79.1681C1519.42 78.1493 1528.58 87.6583 1532.31 107.695C1540.79 152.863 1551.64 191.239 1564.52 223.842C1573.34 137.581 1588.26 75.4324 1609.28 37.0565C1614.36 27.5474 1621.82 22.7929 1631.66 22.1137C1639.46 21.4345 1646.58 23.8117 1653.02 28.9059C1659.46 34 1662.85 40.4525 1663.53 48.2636C1663.87 54.3765 1662.85 59.4708 1660.14 64.5649C1646.92 89.0168 1636.07 130.11 1627.25 187.164C1618.77 242.521 1615.72 285.651 1617.76 316.555C1618.43 325.046 1617.08 332.517 1613.69 338.97C1609.62 346.441 1603.51 350.516 1595.72 351.196C1586.9 351.875 1577.74 347.799 1568.93 338.63C1537.39 306.367 1512.3 258.143 1493.99 193.956C1471.95 237.426 1455.68 270.029 1445.17 291.764C1425.16 330.14 1408.21 349.837 1393.97 350.856C1384.81 351.535 1377.01 343.724 1370.23 327.423C1352.94 282.934 1334.29 197.013 1314.28 69.6591C1313.27 60.8292 1314.96 53.0181 1319.71 46.9052ZM2047.71 100.133C2035.5 78.6782 2017.51 65.737 1993.42 60.6287C1986.97 59.2665 1980.86 58.5854 1975.09 58.5854C1942.52 58.5854 1916.05 75.6131 1895.35 109.669C1877.7 138.616 1868.88 170.628 1868.88 205.705C1868.88 231.928 1874.31 254.405 1885.17 273.135C1897.38 294.59 1915.37 307.531 1939.46 312.64C1945.91 314.002 1952.02 314.683 1957.79 314.683C1990.7 314.683 2017.17 297.655 2037.53 263.6C2055.18 234.312 2064 202.3 2064 167.222C2064 140.659 2058.57 118.523 2047.71 100.133ZM2004.95 194.467C2000.2 216.944 1991.72 233.631 1979.16 244.869C1969.32 253.724 1960.16 257.47 1951.68 255.767C1943.53 254.064 1936.75 246.912 1931.66 233.631C1927.58 223.074 1925.55 212.516 1925.55 202.64C1925.55 194.126 1926.23 185.612 1927.92 177.78C1930.98 163.817 1936.75 150.195 1945.91 137.254C1957.11 120.566 1968.98 113.755 1981.2 116.139C1989.34 117.842 1996.13 124.994 2001.22 138.275C2005.29 148.832 2007.33 159.39 2007.33 169.266C2007.33 178.12 2006.31 186.634 2004.95 194.467ZM1782.03 60.6287C1805.79 65.737 1824.11 78.6782 1836.33 100.133C1847.19 118.523 1852.62 140.659 1852.62 167.222C1852.62 202.3 1843.8 234.312 1826.15 263.6C1805.79 297.655 1779.32 314.683 1746.4 314.683C1740.64 314.683 1734.53 314.002 1728.08 312.64C1703.99 307.531 1686 294.59 1673.78 273.135C1662.93 254.405 1657.5 231.928 1657.5 205.705C1657.5 170.628 1666.32 138.616 1683.96 109.669C1704.66 75.6131 1731.13 58.5854 1763.71 58.5854C1769.48 58.5854 1775.59 59.2665 1782.03 60.6287ZM1767.78 244.869C1780.34 233.631 1788.82 216.944 1793.57 194.467C1795.27 186.634 1795.95 178.12 1795.95 169.266C1795.95 159.39 1793.91 148.832 1789.84 138.275C1784.75 124.994 1777.96 117.842 1769.82 116.139C1757.6 113.755 1745.73 120.566 1734.53 137.254C1725.36 150.195 1719.6 163.817 1716.54 177.78C1714.85 185.612 1714.17 194.126 1714.17 202.64C1714.17 212.516 1716.2 223.074 1720.27 233.631C1725.36 246.912 1732.15 254.064 1740.3 255.767C1748.78 257.47 1757.94 253.724 1767.78 244.869Z" fill="white"/>
<circle cx="460.24" cy="885.636" r="3.52358" transform="rotate(-180 460.24 885.636)" fill="#70C217"/>
<circle cx="408.561" cy="885.636" r="3.52358" transform="rotate(-180 408.561 885.636)" fill="#70C217"/>
<circle cx="356.882" cy="885.636" r="3.52358" transform="rotate(-180 356.882 885.636)" fill="#70C217"/>
<circle cx="305.202" cy="885.636" r="3.52358" transform="rotate(-180 305.202 885.636)" fill="#70C217"/>
<circle cx="253.523" cy="885.636" r="3.52358" transform="rotate(-180 253.523 885.636)" fill="#70C217"/>
<circle cx="460.24" cy="833.957" r="3.52358" transform="rotate(-180 460.24 833.957)" fill="#70C217"/>
<circle cx="408.561" cy="833.957" r="3.52358" transform="rotate(-180 408.561 833.957)" fill="#70C217"/>
<circle cx="356.882" cy="833.957" r="3.52358" transform="rotate(-180 356.882 833.957)" fill="#70C217"/>
<circle cx="305.202" cy="833.957" r="3.52358" transform="rotate(-180 305.202 833.957)" fill="#70C217"/>
<circle cx="253.523" cy="833.957" r="3.52358" transform="rotate(-180 253.523 833.957)" fill="#70C217"/>
<circle cx="460.24" cy="782.278" r="3.52358" transform="rotate(-180 460.24 782.278)" fill="#70C217"/>
<circle cx="408.561" cy="782.278" r="3.52358" transform="rotate(-180 408.561 782.278)" fill="#70C217"/>
<circle cx="356.882" cy="782.278" r="3.52358" transform="rotate(-180 356.882 782.278)" fill="#70C217"/>
<circle cx="305.202" cy="782.278" r="3.52358" transform="rotate(-180 305.202 782.278)" fill="#70C217"/>
<circle cx="253.523" cy="782.278" r="3.52358" transform="rotate(-180 253.523 782.278)" fill="#70C217"/>
<circle cx="460.24" cy="730.599" r="3.52358" transform="rotate(-180 460.24 730.599)" fill="#70C217"/>
<circle cx="408.561" cy="730.599" r="3.52358" transform="rotate(-180 408.561 730.599)" fill="#70C217"/>
<circle cx="356.882" cy="730.599" r="3.52358" transform="rotate(-180 356.882 730.599)" fill="#70C217"/>
<circle cx="305.202" cy="730.599" r="3.52358" transform="rotate(-180 305.202 730.599)" fill="#70C217"/>
<circle cx="253.523" cy="730.599" r="3.52358" transform="rotate(-180 253.523 730.599)" fill="#70C217"/>
<circle cx="460.24" cy="678.92" r="3.52358" transform="rotate(-180 460.24 678.92)" fill="#70C217"/>
<circle cx="408.561" cy="678.92" r="3.52358" transform="rotate(-180 408.561 678.92)" fill="#70C217"/>
<circle cx="356.882" cy="678.92" r="3.52358" transform="rotate(-180 356.882 678.92)" fill="#70C217"/>
<circle cx="305.202" cy="678.92" r="3.52358" transform="rotate(-180 305.202 678.92)" fill="#70C217"/>
<circle cx="253.523" cy="678.92" r="3.52358" transform="rotate(-180 253.523 678.92)" fill="#70C217"/>
<circle cx="460.24" cy="627.24" r="3.52358" transform="rotate(-180 460.24 627.24)" fill="#70C217"/>
<circle cx="408.561" cy="627.24" r="3.52358" transform="rotate(-180 408.561 627.24)" fill="#70C217"/>
<circle cx="356.882" cy="627.24" r="3.52358" transform="rotate(-180 356.882 627.24)" fill="#70C217"/>
<circle cx="305.202" cy="627.24" r="3.52358" transform="rotate(-180 305.202 627.24)" fill="#70C217"/>
<circle cx="253.523" cy="627.24" r="3.52358" transform="rotate(-180 253.523 627.24)" fill="#70C217"/>
<circle cx="460.24" cy="575.561" r="3.52358" transform="rotate(-180 460.24 575.561)" fill="#70C217"/>
<circle cx="408.561" cy="575.561" r="3.52358" transform="rotate(-180 408.561 575.561)" fill="#70C217"/>
<circle cx="356.882" cy="575.561" r="3.52358" transform="rotate(-180 356.882 575.561)" fill="#70C217"/>
<circle cx="305.202" cy="575.561" r="3.52358" transform="rotate(-180 305.202 575.561)" fill="#70C217"/>
<circle cx="253.523" cy="575.561" r="3.52358" transform="rotate(-180 253.523 575.561)" fill="#70C217"/>
<circle cx="460.24" cy="523.882" r="3.52358" transform="rotate(-180 460.24 523.882)" fill="#70C217"/>
<circle cx="408.561" cy="523.882" r="3.52358" transform="rotate(-180 408.561 523.882)" fill="#70C217"/>
<circle cx="356.882" cy="523.882" r="3.52358" transform="rotate(-180 356.882 523.882)" fill="#70C217"/>
<circle cx="305.202" cy="523.882" r="3.52358" transform="rotate(-180 305.202 523.882)" fill="#70C217"/>
<circle cx="253.523" cy="523.882" r="3.52358" transform="rotate(-180 253.523 523.882)" fill="#70C217"/>
<circle cx="460.24" cy="472.203" r="3.52358" transform="rotate(-180 460.24 472.203)" fill="#70C217"/>
<circle cx="408.561" cy="472.203" r="3.52358" transform="rotate(-180 408.561 472.203)" fill="#70C217"/>
<circle cx="356.882" cy="472.203" r="3.52358" transform="rotate(-180 356.882 472.203)" fill="#70C217"/>
<circle cx="305.202" cy="472.203" r="3.52358" transform="rotate(-180 305.202 472.203)" fill="#70C217"/>
<circle cx="253.523" cy="472.203" r="3.52358" transform="rotate(-180 253.523 472.203)" fill="#70C217"/>
<circle cx="460.24" cy="420.524" r="3.52358" transform="rotate(-180 460.24 420.524)" fill="#70C217"/>
<circle cx="408.561" cy="420.524" r="3.52358" transform="rotate(-180 408.561 420.524)" fill="#70C217"/>
<circle cx="356.882" cy="420.524" r="3.52358" transform="rotate(-180 356.882 420.524)" fill="#70C217"/>
<circle cx="305.202" cy="420.524" r="3.52358" transform="rotate(-180 305.202 420.524)" fill="#70C217"/>
<circle cx="253.523" cy="420.524" r="3.52358" transform="rotate(-180 253.523 420.524)" fill="#70C217"/>
<circle cx="1288.52" cy="1003.24" r="3.52358" transform="rotate(-90 1288.52 1003.24)" fill="#70C217"/>
<circle cx="1288.52" cy="951.561" r="3.52358" transform="rotate(-90 1288.52 951.561)" fill="#70C217"/>
<circle cx="1288.52" cy="899.882" r="3.52358" transform="rotate(-90 1288.52 899.882)" fill="#70C217"/>
<circle cx="1288.52" cy="848.203" r="3.52358" transform="rotate(-90 1288.52 848.203)" fill="#70C217"/>
<circle cx="1288.52" cy="796.524" r="3.52358" transform="rotate(-90 1288.52 796.524)" fill="#70C217"/>
<circle cx="1340.2" cy="1003.24" r="3.52358" transform="rotate(-90 1340.2 1003.24)" fill="#70C217"/>
<circle cx="1340.2" cy="951.561" r="3.52358" transform="rotate(-90 1340.2 951.561)" fill="#70C217"/>
<circle cx="1340.2" cy="899.882" r="3.52358" transform="rotate(-90 1340.2 899.882)" fill="#70C217"/>
<circle cx="1340.2" cy="848.203" r="3.52358" transform="rotate(-90 1340.2 848.203)" fill="#70C217"/>
<circle cx="1340.2" cy="796.524" r="3.52358" transform="rotate(-90 1340.2 796.524)" fill="#70C217"/>
<circle cx="1391.88" cy="1003.24" r="3.52358" transform="rotate(-90 1391.88 1003.24)" fill="#70C217"/>
<circle cx="1391.88" cy="951.561" r="3.52358" transform="rotate(-90 1391.88 951.561)" fill="#70C217"/>
<circle cx="1391.88" cy="899.882" r="3.52358" transform="rotate(-90 1391.88 899.882)" fill="#70C217"/>
<circle cx="1391.88" cy="848.203" r="3.52358" transform="rotate(-90 1391.88 848.203)" fill="#70C217"/>
<circle cx="1391.88" cy="796.524" r="3.52358" transform="rotate(-90 1391.88 796.524)" fill="#70C217"/>
<circle cx="1443.56" cy="1003.24" r="3.52358" transform="rotate(-90 1443.56 1003.24)" fill="#70C217"/>
<circle cx="1443.56" cy="951.561" r="3.52358" transform="rotate(-90 1443.56 951.561)" fill="#70C217"/>
<circle cx="1443.56" cy="899.882" r="3.52358" transform="rotate(-90 1443.56 899.882)" fill="#70C217"/>
<circle cx="1443.56" cy="848.203" r="3.52358" transform="rotate(-90 1443.56 848.203)" fill="#70C217"/>
<circle cx="1443.56" cy="796.524" r="3.52358" transform="rotate(-90 1443.56 796.524)" fill="#70C217"/>
<circle cx="1495.24" cy="1003.24" r="3.52358" transform="rotate(-90 1495.24 1003.24)" fill="#70C217"/>
<circle cx="1495.24" cy="951.561" r="3.52358" transform="rotate(-90 1495.24 951.561)" fill="#70C217"/>
<circle cx="1495.24" cy="899.882" r="3.52358" transform="rotate(-90 1495.24 899.882)" fill="#70C217"/>
<circle cx="1495.24" cy="848.203" r="3.52358" transform="rotate(-90 1495.24 848.203)" fill="#70C217"/>
<circle cx="1495.24" cy="796.524" r="3.52358" transform="rotate(-90 1495.24 796.524)" fill="#70C217"/>
<circle cx="1546.92" cy="1003.24" r="3.52358" transform="rotate(-90 1546.92 1003.24)" fill="#70C217"/>
<circle cx="1546.92" cy="951.561" r="3.52358" transform="rotate(-90 1546.92 951.561)" fill="#70C217"/>
<circle cx="1546.92" cy="899.882" r="3.52358" transform="rotate(-90 1546.92 899.882)" fill="#70C217"/>
<circle cx="1546.92" cy="848.203" r="3.52358" transform="rotate(-90 1546.92 848.203)" fill="#70C217"/>
<circle cx="1546.92" cy="796.524" r="3.52358" transform="rotate(-90 1546.92 796.524)" fill="#70C217"/>
<circle cx="1598.6" cy="1003.24" r="3.52358" transform="rotate(-90 1598.6 1003.24)" fill="#70C217"/>
<circle cx="1598.6" cy="951.561" r="3.52358" transform="rotate(-90 1598.6 951.561)" fill="#70C217"/>
<circle cx="1598.6" cy="899.882" r="3.52358" transform="rotate(-90 1598.6 899.882)" fill="#70C217"/>
<circle cx="1598.6" cy="848.203" r="3.52358" transform="rotate(-90 1598.6 848.203)" fill="#70C217"/>
<circle cx="1598.6" cy="796.524" r="3.52358" transform="rotate(-90 1598.6 796.524)" fill="#70C217"/>
<circle cx="1650.28" cy="1003.24" r="3.52358" transform="rotate(-90 1650.28 1003.24)" fill="#70C217"/>
<circle cx="1650.28" cy="951.561" r="3.52358" transform="rotate(-90 1650.28 951.561)" fill="#70C217"/>
<circle cx="1650.28" cy="899.882" r="3.52358" transform="rotate(-90 1650.28 899.882)" fill="#70C217"/>
<circle cx="1650.28" cy="848.203" r="3.52358" transform="rotate(-90 1650.28 848.203)" fill="#70C217"/>
<circle cx="1650.28" cy="796.524" r="3.52358" transform="rotate(-90 1650.28 796.524)" fill="#70C217"/>
<circle cx="1701.96" cy="1003.24" r="3.52358" transform="rotate(-90 1701.96 1003.24)" fill="#70C217"/>
<circle cx="1701.96" cy="951.561" r="3.52358" transform="rotate(-90 1701.96 951.561)" fill="#70C217"/>
<circle cx="1701.96" cy="899.882" r="3.52358" transform="rotate(-90 1701.96 899.882)" fill="#70C217"/>
<circle cx="1701.96" cy="848.203" r="3.52358" transform="rotate(-90 1701.96 848.203)" fill="#70C217"/>
<circle cx="1701.96" cy="796.524" r="3.52358" transform="rotate(-90 1701.96 796.524)" fill="#70C217"/>
<circle cx="1753.64" cy="1003.24" r="3.52358" transform="rotate(-90 1753.64 1003.24)" fill="#70C217"/>
<circle cx="1753.64" cy="951.561" r="3.52358" transform="rotate(-90 1753.64 951.561)" fill="#70C217"/>
<circle cx="1753.64" cy="899.882" r="3.52358" transform="rotate(-90 1753.64 899.882)" fill="#70C217"/>
<circle cx="1753.64" cy="848.203" r="3.52358" transform="rotate(-90 1753.64 848.203)" fill="#70C217"/>
<circle cx="1753.64" cy="796.524" r="3.52358" transform="rotate(-90 1753.64 796.524)" fill="#70C217"/>
<g filter="url(#filter0_d)">
<circle cx="437.5" cy="413.5" r="198" stroke="#FFBA49" stroke-width="5"/>
</g>
<circle cx="1572" cy="708" r="128.5" stroke="#FFBA49" stroke-width="5"/>
<circle cx="249.5" cy="200.5" r="30" stroke="#FFBA49" stroke-width="5"/>
<circle cx="1268.5" cy="587.5" r="30" stroke="#FFBA49" stroke-width="5"/>
<defs>
<filter id="filter0_d" x="233" y="213" width="409" height="409" filterUnits="userSpaceOnUse" color-interpolation-filters="sRGB">
<feFlood flood-opacity="0" result="BackgroundImageFix"/>
<feColorMatrix in="SourceAlpha" type="matrix" values="0 0 0 0 0 0 0 0 0 0 0 0 0 0 0 0 0 0 127 0"/>
<feOffset dy="4"/>
<feGaussianBlur stdDeviation="2"/>
<feColorMatrix type="matrix" values="0 0 0 0 0 0 0 0 0 0 0 0 0 0 0 0 0 0 0.25 0"/>
<feBlend mode="normal" in2="BackgroundImageFix" result="effect1_dropShadow"/>
<feBlend mode="normal" in="SourceGraphic" in2="effect1_dropShadow" result="shape"/>
</filter>
</defs>
</svg>
